<?xml version="1.0" encoding="UTF-8" standalone="no" ?>
<!DOCTYPE svg PUBLIC "-//W3C//DTD SVG 1.1//EN" "http://www.w3.org/Graphics/SVG/1.1/DTD/svg11.dtd">
<svg xmlns="http://www.w3.org/2000/svg" xmlns:xlink="http://www.w3.org/1999/xlink" version="1.1" width="206" height="75" viewBox="0 0 206 75" xml:space="preserve">
<desc>Created with Fabric.js 3.6.3</desc>
<defs>
</defs>
<g transform="matrix(1 0 0 1 112.76 48.82)"  >
<g style=""   >
		<g transform="matrix(1 0 0 1 -80.37 -11.05)" id="Layer_1"  >
<path style="stroke: none; stroke-width: 1; stroke-dasharray: none; stroke-linecap: butt; stroke-dashoffset: 0; stroke-linejoin: miter; stroke-miterlimit: 4; fill: rgb(255,255,255); fill-rule: nonzero; opacity: 1;"  transform=" translate(-129.39, -137.77)" d="M 151.39 150.99 c -2.09 2.54 -4.79 4.64 -7.82 6.11 c -3.03 1.47 -6.39 2.3 -9.8 2.44 c -0.85 0.03 -1.71 0.02 -2.56 -0.03 c -0.85 -0.05 -1.71 -0.15 -2.55 -0.29 a 25.27 25.27 0 0 1 -4.96 -1.34 c -0.8 -0.31 -1.59 -0.66 -2.36 -1.05 c -0.77 -0.39 -1.51 -0.82 -2.24 -1.28 c -1.45 -0.93 -2.8 -2.02 -4.03 -3.21 a 27.176 27.176 0 0 1 -3.31 -3.95 c -0.48 -0.71 -0.93 -1.45 -1.34 -2.21 c -0.41 -0.76 -0.78 -1.53 -1.11 -2.33 a 25.65 25.65 0 0 1 -1.47 -4.93 c -0.16 -0.84 -0.28 -1.69 -0.35 -2.54 c -0.07 -0.85 -0.1 -1.71 -0.09 -2.56 c 0.05 -3.41 0.8 -6.79 2.2 -9.86 c 1.39 -3.07 3.42 -5.81 5.91 -7.97 l 0.01 0.01 a 28.796 28.796 0 0 0 -2.78 4.02 c -0.8 1.41 -1.47 2.88 -1.98 4.4 c -1.04 3.03 -1.5 6.22 -1.37 9.37 c 0.03 0.79 0.1 1.57 0.21 2.35 c 0.11 0.78 0.24 1.55 0.42 2.32 c 0.36 1.52 0.86 3.02 1.49 4.44 c 0.32 0.71 0.67 1.41 1.05 2.09 c 0.38 0.68 0.8 1.34 1.25 1.98 c 0.89 1.28 1.9 2.47 3.02 3.55 c 1.11 1.09 2.33 2.08 3.63 2.93 a 24.078 24.078 0 0 0 4.13 2.2 c 1.44 0.6 2.94 1.06 4.48 1.38 c 0.77 0.16 1.54 0.28 2.32 0.37 c 0.78 0.09 1.57 0.14 2.35 0.15 c 3.15 0.06 6.33 -0.48 9.33 -1.6 c 1.5 -0.55 2.95 -1.26 4.34 -2.09 c 1.39 -0.83 2.71 -1.8 3.95 -2.88 l 0.03 0.01 z" stroke-linecap="round" />
</g>
		<g transform="matrix(1 0 0 1 -89.81 -16.91)" id="Layer_1"  >
<path style="stroke: none; stroke-width: 1; stroke-dasharray: none; stroke-linecap: butt; stroke-dashoffset: 0; stroke-linejoin: miter; stroke-miterlimit: 4; fill: rgb(156,205,240); fill-rule: nonzero; opacity: 1;"  transform=" translate(-119.96, -131.91)" d="M 117.27 157.36 c -3.25 -1.17 -6.27 -3.1 -8.79 -5.57 c -2.52 -2.48 -4.53 -5.5 -5.86 -8.82 c -0.33 -0.83 -0.62 -1.68 -0.88 -2.54 c -0.25 -0.86 -0.45 -1.74 -0.61 -2.62 a 26.164 26.164 0 0 1 -0.21 -8.08 c 0.11 -0.89 0.27 -1.78 0.48 -2.66 c 0.41 -1.76 1.01 -3.48 1.75 -5.12 c 0.76 -1.64 1.67 -3.21 2.74 -4.67 c 0.54 -0.72 1.11 -1.43 1.71 -2.1 c 0.6 -0.67 1.24 -1.31 1.91 -1.91 c 1.34 -1.21 2.8 -2.28 4.35 -3.19 c 0.78 -0.45 1.57 -0.87 2.39 -1.24 c 0.82 -0.37 1.65 -0.7 2.5 -0.99 c 3.39 -1.15 6.99 -1.6 10.51 -1.3 c 3.52 0.3 6.95 1.33 9.95 3.04 l -0.01 0.02 c -1.62 -0.58 -3.28 -1.03 -4.95 -1.33 a 27.57 27.57 0 0 0 -5.04 -0.41 c -3.36 0.04 -6.67 0.71 -9.74 1.95 c -0.77 0.31 -1.52 0.66 -2.25 1.04 s -1.45 0.79 -2.14 1.23 c -1.38 0.9 -2.68 1.91 -3.86 3.04 c -0.59 0.57 -1.16 1.16 -1.7 1.77 c -0.54 0.62 -1.04 1.26 -1.51 1.93 a 25.53 25.53 0 0 0 -2.45 4.24 c -0.69 1.48 -1.23 3.03 -1.62 4.62 a 25.046 25.046 0 0 0 -0.72 4.85 c -0.09 1.64 -0.01 3.28 0.21 4.91 c 0.11 0.81 0.27 1.63 0.46 2.43 a 26.725 26.725 0 0 0 5.55 11.04 c 1.08 1.29 2.29 2.48 3.6 3.56 s 2.73 2.04 4.23 2.89 v -0.01 z" stroke-linecap="round" />
</g>
		<g transform="matrix(1 0 0 1 -82.84 -32.53)" id="Layer_1"  >
<path style="stroke: none; stroke-width: 1; stroke-dasharray: none; stroke-linecap: butt; stroke-dashoffset: 0; stroke-linejoin: miter; stroke-miterlimit: 4; fill: rgb(255,255,255); fill-rule: nonzero; opacity: 1;"  transform=" translate(-126.93, -116.29)" d="M 97.58 132.42 c -0.5 -3.84 -0.13 -7.84 1.05 -11.62 c 1.17 -3.78 3.16 -7.34 5.79 -10.37 c 0.66 -0.76 1.35 -1.48 2.08 -2.17 s 1.5 -1.34 2.3 -1.95 a 29.484 29.484 0 0 1 7.94 -4.35 c 0.95 -0.34 1.92 -0.64 2.9 -0.89 c 1.96 -0.49 3.98 -0.78 6 -0.88 c 2.02 -0.08 4.05 0.02 6.06 0.34 c 1 0.16 1.99 0.37 2.97 0.63 c 0.98 0.26 1.95 0.56 2.89 0.92 c 1.89 0.72 3.71 1.62 5.41 2.7 c 0.85 0.54 1.67 1.12 2.46 1.74 c 0.79 0.63 1.54 1.29 2.27 1.98 c 2.88 2.79 5.18 6.15 6.69 9.81 c 1.51 3.66 2.23 7.61 2.08 11.47 h -0.02 c -0.25 -1.92 -0.65 -3.8 -1.21 -5.62 a 30.05 30.05 0 0 0 -2.18 -5.23 a 30.04 30.04 0 0 0 -6.94 -8.71 c -0.7 -0.6 -1.43 -1.17 -2.18 -1.71 c -0.75 -0.53 -1.53 -1.03 -2.33 -1.5 c -1.6 -0.92 -3.27 -1.69 -5.01 -2.29 c -0.87 -0.3 -1.75 -0.56 -2.64 -0.78 c -0.89 -0.22 -1.79 -0.39 -2.7 -0.52 c -1.81 -0.27 -3.65 -0.36 -5.48 -0.27 c -1.83 0.07 -3.65 0.33 -5.44 0.76 c -0.89 0.21 -1.77 0.46 -2.64 0.76 c -0.87 0.29 -1.72 0.64 -2.56 1.01 a 28.729 28.729 0 0 0 -6.97 4.43 c -0.7 0.6 -1.38 1.23 -2.02 1.9 a 29.983 29.983 0 0 0 -6.13 9.29 c -0.73 1.74 -1.3 3.55 -1.7 5.41 c -0.4 1.86 -0.63 3.77 -0.71 5.7 l -0.03 0.01 z" stroke-linecap="round" />
</g>
		<g transform="matrix(1 0 0 1 -30.75 -15.8)" id="Layer_1"  >
<path style="stroke: none; stroke-width: 1; stroke-dasharray: none; stroke-linecap: butt; stroke-dashoffset: 0; stroke-linejoin: miter; stroke-miterlimit: 4; fill: rgb(0,0,0); fill-rule: nonzero; opacity: 1;"  transform=" translate(-179.02, -133.02)" d="M 134.96 145.3 c 0 4.47 -3.07 7.11 -7.22 7.11 s -7.22 -2.64 -7.22 -7.11 v -24.56 c 0 -4.47 3.07 -7.11 7.22 -7.11 s 7.22 2.64 7.22 7.11 v 24.56 z m -7.22 -27.47 c -1.62 0 -2.69 1.13 -2.69 2.91 v 24.56 c 0 1.78 1.08 2.91 2.69 2.91 c 1.62 0 2.69 -1.13 2.69 -2.91 v -24.56 c 0 -1.78 -1.07 -2.91 -2.69 -2.91 z M 153.38 142.71 c 0 3.56 -4.2 9.7 -6.73 9.7 c -2.59 0 -6.73 -6.14 -6.73 -9.7 v -19.39 h 4.42 v 19.39 c 0 1.78 1.67 4.47 2.32 4.47 c 0.59 0 2.32 -2.69 2.32 -4.47 v -13.47 c 0 -1.62 -0.7 -2.15 -1.83 -1.99 v -3.93 c 4.15 -0.43 6.25 0.86 6.25 5.92 v 13.47 z M 162.54 140.56 v 5.39 c 0 1.4 1.02 2.37 2.32 2.37 c 1.29 0 2.32 -0.97 2.32 -2.37 v -3.39 h 4.42 v 3.39 c 0 4.31 -3.12 6.46 -6.73 6.46 c -3.56 0 -6.73 -2.16 -6.73 -6.46 v -16.7 c 0 -4.31 3.18 -6.46 6.73 -6.46 c 3.61 0 6.73 2.15 6.73 6.46 v 3.99 c 0 2.58 -0.75 3.29 -2.8 4.31 l -6.26 3.01 z m 4.63 -7.33 v -3.99 c 0 -1.4 -1.02 -2.37 -2.32 -2.37 c -1.29 0 -2.32 0.97 -2.32 2.37 v 6.68 l 4.2 -1.99 c 0.28 -0.1 0.44 -0.43 0.44 -0.7 z M 180.42 151.87 H 176 v -22.62 c 0 -3.99 2.48 -6.41 6.25 -6.41 s 6.25 2.48 6.25 6.41 v 2.96 h -4.42 v -2.96 c 0 -1.56 -0.86 -2.32 -1.83 -2.32 c -0.97 0 -1.83 0.75 -1.83 2.32 v 22.62 z M 200.78 151.87 v -22.62 c 0 -1.4 -1.02 -2.37 -2.32 -2.37 c -1.29 0 -2.32 0.97 -2.32 2.37 v 22.62 h -4.42 v -22.62 c 0 -4.31 3.12 -6.46 6.73 -6.46 c 3.55 0 6.73 2.15 6.73 6.46 v 22.62 h -4.4 z M 214.36 140.56 v 5.39 c 0 1.4 1.02 2.37 2.32 2.37 c 1.29 0 2.32 -0.97 2.32 -2.37 v -3.39 h 4.42 v 3.39 c 0 4.31 -3.12 6.46 -6.73 6.46 c -3.56 0 -6.73 -2.16 -6.73 -6.46 v -16.7 c 0 -4.31 3.18 -6.46 6.73 -6.46 c 3.61 0 6.73 2.15 6.73 6.46 v 3.99 c 0 2.58 -0.75 3.29 -2.8 4.31 l -6.26 3.01 z m 4.63 -7.33 v -3.99 c 0 -1.4 -1.02 -2.37 -2.32 -2.37 c -1.29 0 -2.32 0.97 -2.32 2.37 v 6.68 l 4.2 -1.99 c 0.28 -0.1 0.44 -0.43 0.44 -0.7 z M 225.77 123.32 h 2.91 v -7.11 h 4.42 v 7.11 h 4.42 v 4.09 h -4.42 v 18.53 c 0 1.35 0.48 2.21 1.56 2.21 h 2.69 v 3.61 s -1.29 0.48 -2.69 0.48 c -3.82 0 -5.98 -2.32 -5.98 -6.3 v -18.53 h -2.91 v -4.09 z" stroke-linecap="round" />
</g>
		<g transform="matrix(1 0 0 1 2.34 -5.39)" id="Layer_1"  >
<path style="stroke: none; stroke-width: 1; stroke-dasharray: none; stroke-linecap: butt; stroke-dashoffset: 0; stroke-linejoin: miter; stroke-miterlimit: 4; fill: rgb(255,255,255); fill-rule: nonzero; opacity: 1;"  transform=" translate(-212.1, -143.43)" d="M 253.78 145.94 c 0 4.31 -3.12 6.46 -6.73 6.46 c -3.56 0 -6.73 -2.16 -6.73 -6.46 v -16.7 c 0 -4.31 3.18 -6.46 6.73 -6.46 c 0.7 0 1.67 0.32 2.32 0.86 v -11.63 h 4.42 v 33.93 z m -9.05 0 c 0 1.4 1.02 2.37 2.32 2.37 c 1.29 0 2.32 -0.97 2.32 -2.37 v -16.7 c 0 -1.4 -1.02 -2.37 -2.32 -2.37 c -1.29 0 -2.32 0.97 -2.32 2.37 v 16.7 z M 271.67 145.94 c 0 4.31 -3.18 6.46 -6.73 6.46 c -3.61 0 -6.73 -2.16 -6.73 -6.46 v -3.82 c 0 -3.07 1.83 -5.12 4.15 -6.14 l 4.9 -2.15 v -4.58 c 0 -1.4 -1.02 -2.37 -2.32 -2.37 c -1.29 0 -2.32 0.97 -2.32 2.37 v 3.02 h -4.42 v -3.02 c 0 -4.31 3.12 -6.46 6.73 -6.46 c 3.56 0 6.73 2.15 6.73 6.46 v 16.69 z m -9.05 0 c 0 1.4 1.02 2.37 2.32 2.37 c 1.29 0 2.32 -0.97 2.32 -2.37 v -7.54 l -3.02 1.35 c -0.92 0.43 -1.62 1.02 -1.62 2.37 v 3.82 z M 274.36 123.32 h 2.91 v -7.11 h 4.42 v 7.11 h 4.42 v 4.09 h -4.42 v 18.53 c 0 1.35 0.48 2.21 1.56 2.21 h 2.69 v 3.61 s -1.29 0.48 -2.69 0.48 c -3.82 0 -5.98 -2.32 -5.98 -6.3 v -18.53 h -2.91 v -4.09 z M 302.05 145.94 c 0 4.31 -3.18 6.46 -6.73 6.46 c -3.61 0 -6.73 -2.16 -6.73 -6.46 v -3.82 c 0 -3.07 1.83 -5.12 4.15 -6.14 l 4.9 -2.15 v -4.58 c 0 -1.4 -1.02 -2.37 -2.32 -2.37 c -1.29 0 -2.32 0.97 -2.32 2.37 v 3.02 h -4.42 v -3.02 c 0 -4.31 3.12 -6.46 6.73 -6.46 c 3.56 0 6.73 2.15 6.73 6.46 v 16.69 z m -9.05 0 c 0 1.4 1.02 2.37 2.32 2.37 c 1.29 0 2.32 -0.97 2.32 -2.37 v -7.54 l -3.02 1.35 c -0.92 0.43 -1.62 1.02 -1.62 2.37 v 3.82 z M 122.61 168.92 v 1.44 c 0 0.38 0.27 0.63 0.62 0.63 s 0.62 -0.26 0.62 -0.63 v -0.91 h 1.18 v 0.91 c 0 1.15 -0.84 1.73 -1.8 1.73 c -0.95 0 -1.8 -0.58 -1.8 -1.73 v -4.47 c 0 -1.15 0.85 -1.73 1.8 -1.73 c 0.97 0 1.8 0.58 1.8 1.73 v 1.07 c 0 0.69 -0.2 0.88 -0.75 1.15 l -1.67 0.81 z m 1.24 -1.96 v -1.07 c 0 -0.37 -0.27 -0.63 -0.62 -0.63 s -0.62 0.26 -0.62 0.63 v 1.79 l 1.12 -0.53 c 0.08 -0.03 0.12 -0.11 0.12 -0.19 z M 129.82 170.37 c 0 1.15 -0.84 1.73 -1.8 1.73 c -0.95 0 -1.8 -0.58 -1.8 -1.73 v -4.47 c 0 -1.15 0.85 -1.73 1.8 -1.73 c 0.19 0 0.45 0.09 0.62 0.23 v -3.12 h 1.18 v 9.09 z m -2.42 0 c 0 0.38 0.27 0.63 0.62 0.63 s 0.62 -0.26 0.62 -0.63 v -4.47 c 0 -0.37 -0.27 -0.63 -0.62 -0.63 s -0.62 0.26 -0.62 0.63 v 4.47 z M 132.27 164.31 v 6.06 c 0 0.38 0.27 0.63 0.62 0.63 s 0.62 -0.26 0.62 -0.63 v -6.06 h 1.18 v 6.06 c 0 1.15 -0.85 1.73 -1.8 1.73 c -0.97 0 -1.8 -0.58 -1.8 -1.73 v -6.06 h 1.18 z M 137.14 170.37 c 0 0.38 0.27 0.63 0.62 0.63 s 0.62 -0.26 0.62 -0.63 v -0.91 h 1.18 v 0.91 c 0 1.15 -0.84 1.73 -1.8 1.73 c -0.95 0 -1.8 -0.58 -1.8 -1.73 v -4.47 c 0 -1.15 0.85 -1.73 1.8 -1.73 c 0.97 0 1.8 0.58 1.8 1.73 v 0.81 h -1.18 v -0.81 c 0 -0.37 -0.27 -0.63 -0.62 -0.63 s -0.62 0.26 -0.62 0.63 v 4.47 z M 144.06 170.37 c 0 1.15 -0.85 1.73 -1.8 1.73 c -0.97 0 -1.8 -0.58 -1.8 -1.73 v -1.02 c 0 -0.82 0.49 -1.37 1.11 -1.64 l 1.31 -0.58 v -1.23 c 0 -0.37 -0.27 -0.63 -0.62 -0.63 s -0.62 0.26 -0.62 0.63 v 0.81 h -1.18 v -0.81 c 0 -1.15 0.84 -1.73 1.8 -1.73 c 0.95 0 1.8 0.58 1.8 1.73 v 4.47 z m -2.42 0 c 0 0.38 0.27 0.63 0.62 0.63 s 0.62 -0.26 0.62 -0.63 v -2.02 l -0.81 0.36 c -0.25 0.12 -0.43 0.27 -0.43 0.63 v 1.03 z M 144.78 164.31 h 0.78 v -1.9 h 1.18 v 1.9 h 1.18 v 1.1 h -1.18 v 4.96 c 0 0.36 0.13 0.59 0.42 0.59 h 0.72 v 0.97 s -0.35 0.13 -0.72 0.13 c -1.02 0 -1.6 -0.62 -1.6 -1.69 v -4.96 h -0.78 v -1.1 z M 149.38 161.71 c 0.39 0 0.69 0.29 0.69 0.69 c 0 0.4 -0.3 0.69 -0.69 0.69 c -0.39 0 -0.69 -0.29 -0.69 -0.69 c 0 -0.4 0.3 -0.69 0.69 -0.69 z m 0.59 2.6 v 7.64 h -1.18 v -7.64 h 1.18 z M 154.96 170.37 c 0 1.15 -0.85 1.73 -1.8 1.73 c -0.97 0 -1.8 -0.58 -1.8 -1.73 v -4.47 c 0 -1.15 0.84 -1.73 1.8 -1.73 c 0.95 0 1.8 0.58 1.8 1.73 v 4.47 z m -2.42 0 c 0 0.38 0.27 0.63 0.62 0.63 s 0.62 -0.26 0.62 -0.63 v -4.47 c 0 -0.37 -0.27 -0.63 -0.62 -0.63 s -0.62 0.26 -0.62 0.63 v 4.47 z M 158.65 171.95 v -6.06 c 0 -0.37 -0.27 -0.63 -0.62 -0.63 s -0.62 0.26 -0.62 0.63 v 6.06 h -1.18 v -6.06 c 0 -1.15 0.84 -1.73 1.8 -1.73 c 0.95 0 1.8 0.58 1.8 1.73 v 6.06 h -1.18 z M 164.62 170.37 c 0 1.15 -0.85 1.73 -1.8 1.73 c -0.97 0 -1.8 -0.58 -1.8 -1.73 v -1.02 c 0 -0.82 0.49 -1.37 1.11 -1.64 l 1.31 -0.58 v -1.23 c 0 -0.37 -0.27 -0.63 -0.62 -0.63 s -0.62 0.26 -0.62 0.63 v 0.81 h -1.18 v -0.81 c 0 -1.15 0.84 -1.73 1.8 -1.73 c 0.95 0 1.8 0.58 1.8 1.73 v 4.47 z m -2.43 0 c 0 0.38 0.27 0.63 0.62 0.63 s 0.62 -0.26 0.62 -0.63 v -2.02 l -0.81 0.36 c -0.25 0.12 -0.43 0.27 -0.43 0.63 v 1.03 z M 167.18 171.95 H 166 v -10.67 h 1.18 v 10.67 z M 176.67 169.5 c 0 1.25 -1.04 2.6 -1.74 2.6 c -0.36 0 -0.87 -0.56 -1.15 -1.1 c -0.3 0.55 -0.75 1.1 -1.15 1.1 c -0.69 0 -1.75 -1.34 -1.75 -2.6 v -5.19 h 1.18 v 5.19 c 0 0.62 0.42 1.28 0.56 1.28 c 0.17 0 0.56 -0.65 0.56 -1.24 v -5.23 h 1.18 v 5.23 c 0 0.59 0.36 1.24 0.56 1.24 c 0.16 0 0.56 -0.66 0.56 -1.28 v -5.19 h 1.18 v 5.19 z M 179.12 168.92 v 1.44 c 0 0.38 0.27 0.63 0.62 0.63 s 0.62 -0.26 0.62 -0.63 v -0.91 h 1.18 v 0.91 c 0 1.15 -0.84 1.73 -1.8 1.73 c -0.95 0 -1.8 -0.58 -1.8 -1.73 v -4.47 c 0 -1.15 0.85 -1.73 1.8 -1.73 c 0.97 0 1.8 0.58 1.8 1.73 v 1.07 c 0 0.69 -0.2 0.88 -0.75 1.15 l -1.67 0.81 z m 1.24 -1.96 v -1.07 c 0 -0.37 -0.27 -0.63 -0.62 -0.63 s -0.62 0.26 -0.62 0.63 v 1.79 l 1.12 -0.53 c 0.07 -0.03 0.12 -0.11 0.12 -0.19 z M 184.52 172.1 c -0.97 0 -1.8 -0.58 -1.8 -1.73 v -9.09 h 1.18 v 3.12 c 0.17 -0.14 0.42 -0.23 0.62 -0.23 c 0.95 0 1.8 0.58 1.8 1.73 v 4.47 c 0 1.15 -0.85 1.73 -1.8 1.73 z m 0 -6.84 c -0.35 0 -0.62 0.26 -0.62 0.63 v 4.47 c 0 0.38 0.27 0.63 0.62 0.63 s 0.62 -0.26 0.62 -0.63 v -4.47 c 0 -0.37 -0.27 -0.63 -0.62 -0.63 z M 193.42 170.37 c 0 1.15 -0.85 1.73 -1.8 1.73 c -0.97 0 -1.8 -0.58 -1.8 -1.73 v -1.02 c 0 -0.82 0.49 -1.37 1.11 -1.64 l 1.31 -0.58 v -1.23 c 0 -0.37 -0.27 -0.63 -0.62 -0.63 s -0.62 0.26 -0.62 0.63 v 0.81 h -1.18 v -0.81 c 0 -1.15 0.84 -1.73 1.8 -1.73 c 0.95 0 1.8 0.58 1.8 1.73 v 4.47 z m -2.43 0 c 0 0.38 0.27 0.63 0.62 0.63 s 0.62 -0.26 0.62 -0.63 v -2.02 l -0.81 0.36 c -0.25 0.12 -0.43 0.27 -0.43 0.63 v 1.03 z M 194.68 174.75 v -8.85 c 0 -1.15 0.84 -1.73 1.8 -1.73 c 0.95 0 1.8 0.58 1.8 1.73 v 4.47 c 0 1.15 -0.85 1.73 -1.8 1.73 c -0.19 0 -0.45 -0.09 -0.62 -0.23 v 2.88 h -1.18 z m 2.43 -8.85 c 0 -0.37 -0.27 -0.63 -0.62 -0.63 s -0.62 0.26 -0.62 0.63 v 4.47 c 0 0.38 0.27 0.63 0.62 0.63 s 0.62 -0.26 0.62 -0.63 v -4.47 z M 199.56 174.75 v -8.85 c 0 -1.15 0.84 -1.73 1.8 -1.73 c 0.95 0 1.8 0.58 1.8 1.73 v 4.47 c 0 1.15 -0.85 1.73 -1.8 1.73 c -0.19 0 -0.45 -0.09 -0.62 -0.23 v 2.88 h -1.18 z m 2.42 -8.85 c 0 -0.37 -0.27 -0.63 -0.62 -0.63 s -0.62 0.26 -0.62 0.63 v 4.47 c 0 0.38 0.27 0.63 0.62 0.63 s 0.62 -0.26 0.62 -0.63 v -4.47 z M 205.73 171.95 h -1.18 v -10.67 h 1.18 v 10.67 z M 207.82 161.71 c 0.39 0 0.69 0.29 0.69 0.69 c 0 0.4 -0.3 0.69 -0.69 0.69 c -0.39 0 -0.69 -0.29 -0.69 -0.69 c 0 -0.4 0.3 -0.69 0.69 -0.69 z m 0.59 2.6 v 7.64 h -1.18 v -7.64 h 1.18 z M 210.97 170.37 c 0 0.38 0.27 0.63 0.62 0.63 s 0.62 -0.26 0.62 -0.63 v -0.91 h 1.18 v 0.91 c 0 1.15 -0.84 1.73 -1.8 1.73 c -0.95 0 -1.8 -0.58 -1.8 -1.73 v -4.47 c 0 -1.15 0.85 -1.73 1.8 -1.73 c 0.97 0 1.8 0.58 1.8 1.73 v 0.81 h -1.18 v -0.81 c 0 -0.37 -0.27 -0.63 -0.62 -0.63 s -0.62 0.26 -0.62 0.63 v 4.47 z M 217.89 170.37 c 0 1.15 -0.85 1.73 -1.8 1.73 c -0.97 0 -1.8 -0.58 -1.8 -1.73 v -1.02 c 0 -0.82 0.49 -1.37 1.11 -1.64 l 1.31 -0.58 v -1.23 c 0 -0.37 -0.27 -0.63 -0.62 -0.63 s -0.62 0.26 -0.62 0.63 v 0.81 h -1.18 v -0.81 c 0 -1.15 0.84 -1.73 1.8 -1.73 c 0.95 0 1.8 0.58 1.8 1.73 v 4.47 z m -2.42 0 c 0 0.38 0.27 0.63 0.62 0.63 s 0.62 -0.26 0.62 -0.63 v -2.02 l -0.81 0.36 c -0.25 0.12 -0.43 0.27 -0.43 0.63 v 1.03 z M 218.61 164.31 h 0.78 v -1.9 h 1.18 v 1.9 h 1.18 v 1.1 h -1.18 v 4.96 c 0 0.36 0.13 0.59 0.42 0.59 h 0.72 v 0.97 s -0.35 0.13 -0.72 0.13 c -1.02 0 -1.6 -0.62 -1.6 -1.69 v -4.96 h -0.78 v -1.1 z M 223.21 161.71 c 0.39 0 0.69 0.29 0.69 0.69 c 0 0.4 -0.3 0.69 -0.69 0.69 c -0.39 0 -0.69 -0.29 -0.69 -0.69 c 0 -0.4 0.3 -0.69 0.69 -0.69 z m 0.59 2.6 v 7.64 h -1.18 v -7.64 h 1.18 z M 228.79 170.37 c 0 1.15 -0.85 1.73 -1.8 1.73 c -0.97 0 -1.8 -0.58 -1.8 -1.73 v -4.47 c 0 -1.15 0.84 -1.73 1.8 -1.73 c 0.95 0 1.8 0.58 1.8 1.73 v 4.47 z m -2.42 0 c 0 0.38 0.27 0.63 0.62 0.63 s 0.62 -0.26 0.62 -0.63 v -4.47 c 0 -0.37 -0.27 -0.63 -0.62 -0.63 s -0.62 0.26 -0.62 0.63 v 4.47 z M 232.48 171.95 v -6.06 c 0 -0.37 -0.27 -0.63 -0.62 -0.63 s -0.62 0.26 -0.62 0.63 v 6.06 h -1.18 v -6.06 c 0 -1.15 0.84 -1.73 1.8 -1.73 c 0.95 0 1.8 0.58 1.8 1.73 v 6.06 h -1.18 z M 236 169.46 v 0.91 c 0 0.39 0.3 0.62 0.62 0.62 s 0.62 -0.23 0.62 -0.62 v -0.82 c 0 -1.08 -2.42 -1.1 -2.42 -2.98 v -0.66 c 0 -1.14 0.84 -1.73 1.8 -1.73 c 0.98 0 1.8 0.59 1.8 1.73 v 0.81 h -1.18 v -0.81 c 0 -0.39 -0.3 -0.63 -0.62 -0.63 s -0.62 0.25 -0.62 0.63 v 0.66 c 0 1.05 2.42 1.04 2.42 2.98 v 0.82 c 0 1.07 -0.82 1.72 -1.8 1.72 c -0.97 0 -1.8 -0.65 -1.8 -1.72 v -0.91 H 236 z M 245.4 170.37 c 0 1.15 -0.85 1.73 -1.8 1.73 c -0.97 0 -1.8 -0.58 -1.8 -1.73 v -1.02 c 0 -0.82 0.49 -1.37 1.11 -1.64 l 1.31 -0.58 v -1.23 c 0 -0.37 -0.27 -0.63 -0.62 -0.63 s -0.62 0.26 -0.62 0.63 v 0.81 h -1.18 v -0.81 c 0 -1.15 0.84 -1.73 1.8 -1.73 c 0.95 0 1.8 0.58 1.8 1.73 v 4.47 z m -2.42 0 c 0 0.38 0.27 0.63 0.62 0.63 s 0.62 -0.26 0.62 -0.63 v -2.02 l -0.81 0.36 c -0.25 0.12 -0.43 0.27 -0.43 0.63 v 1.03 z M 249.09 171.95 v -6.06 c 0 -0.37 -0.27 -0.63 -0.62 -0.63 s -0.62 0.26 -0.62 0.63 v 6.06 h -1.18 v -6.06 c 0 -1.15 0.84 -1.73 1.8 -1.73 c 0.95 0 1.8 0.58 1.8 1.73 v 6.06 h -1.18 z M 255.14 170.37 c 0 1.15 -0.84 1.73 -1.8 1.73 c -0.95 0 -1.8 -0.58 -1.8 -1.73 v -4.47 c 0 -1.15 0.85 -1.73 1.8 -1.73 c 0.19 0 0.45 0.09 0.62 0.23 v -3.12 h 1.18 v 9.09 z m -2.42 0 c 0 0.38 0.27 0.63 0.62 0.63 s 0.62 -0.26 0.62 -0.63 v -4.47 c 0 -0.37 -0.27 -0.63 -0.62 -0.63 s -0.62 0.26 -0.62 0.63 v 4.47 z M 259.42 161.71 c 0.39 0 0.69 0.29 0.69 0.69 c 0 0.4 -0.3 0.69 -0.69 0.69 c -0.39 0 -0.69 -0.29 -0.69 -0.69 c 0 -0.4 0.3 -0.69 0.69 -0.69 z m 0.59 2.6 v 7.64 h -1.18 v -7.64 h 1.18 z M 263.82 171.95 v -6.06 c 0 -0.37 -0.27 -0.63 -0.62 -0.63 s -0.62 0.26 -0.62 0.63 v 6.06 h -1.18 v -6.06 c 0 -1.15 0.84 -1.73 1.8 -1.73 c 0.95 0 1.8 0.58 1.8 1.73 v 6.06 h -1.18 z M 265.72 164.31 h 0.78 v -1.9 h 1.18 v 1.9 h 1.18 v 1.1 h -1.18 v 4.96 c 0 0.36 0.13 0.59 0.42 0.59 h 0.72 v 0.97 s -0.35 0.13 -0.72 0.13 c -1.02 0 -1.6 -0.62 -1.6 -1.69 v -4.96 h -0.78 v -1.1 z M 270.8 168.92 v 1.44 c 0 0.38 0.27 0.63 0.62 0.63 s 0.62 -0.26 0.62 -0.63 v -0.91 h 1.18 v 0.91 c 0 1.15 -0.84 1.73 -1.8 1.73 c -0.95 0 -1.8 -0.58 -1.8 -1.73 v -4.47 c 0 -1.15 0.85 -1.73 1.8 -1.73 c 0.97 0 1.8 0.58 1.8 1.73 v 1.07 c 0 0.69 -0.2 0.88 -0.75 1.15 l -1.67 0.81 z m 1.24 -1.96 v -1.07 c 0 -0.37 -0.27 -0.63 -0.62 -0.63 s -0.62 0.26 -0.62 0.63 v 1.79 l 1.12 -0.53 c 0.07 -0.03 0.12 -0.11 0.12 -0.19 z M 274.4 165.9 c 0 -1.15 0.85 -1.73 1.8 -1.73 c 0.97 0 1.8 0.58 1.8 1.73 v 7.24 c 0 1.07 -0.82 1.7 -1.82 1.7 c -1.1 0 -1.79 -0.63 -1.79 -1.7 c 0 -0.68 0.4 -1.11 0.78 -1.3 c -0.46 -0.27 -0.78 -0.76 -0.78 -1.47 v -4.47 z m 1.18 4.47 c 0 0.38 0.27 0.63 0.62 0.63 s 0.62 -0.26 0.62 -0.63 v -4.47 c 0 -0.37 -0.27 -0.63 -0.62 -0.63 s -0.62 0.26 -0.62 0.63 v 4.47 z m 1.24 2.77 v -1.33 c -0.68 0.22 -1.24 0.56 -1.24 1.33 c 0 0.38 0.27 0.61 0.61 0.61 s 0.63 -0.24 0.63 -0.61 z M 280.45 171.95 h -1.18 v -6.06 c 0 -1.07 0.66 -1.72 1.67 -1.72 s 1.67 0.66 1.67 1.72 v 0.79 h -1.18 v -0.79 c 0 -0.42 -0.23 -0.62 -0.49 -0.62 s -0.49 0.2 -0.49 0.62 v 6.06 z M 287 170.37 c 0 1.15 -0.85 1.73 -1.8 1.73 c -0.97 0 -1.8 -0.58 -1.8 -1.73 v -1.02 c 0 -0.82 0.49 -1.37 1.11 -1.64 l 1.31 -0.58 v -1.23 c 0 -0.37 -0.27 -0.63 -0.62 -0.63 s -0.62 0.26 -0.62 0.63 v 0.81 h -1.18 v -0.81 c 0 -1.15 0.84 -1.73 1.8 -1.73 c 0.95 0 1.8 0.58 1.8 1.73 v 4.47 z m -2.42 0 c 0 0.38 0.27 0.63 0.62 0.63 s 0.62 -0.26 0.62 -0.63 v -2.02 l -0.81 0.36 c -0.25 0.12 -0.43 0.27 -0.43 0.63 v 1.03 z M 287.72 164.31 h 0.78 v -1.9 h 1.18 v 1.9 h 1.18 v 1.1 h -1.18 v 4.96 c 0 0.36 0.13 0.59 0.42 0.59 h 0.72 v 0.97 s -0.35 0.13 -0.72 0.13 c -1.02 0 -1.6 -0.62 -1.6 -1.69 v -4.96 h -0.78 v -1.1 z M 292.32 161.71 c 0.39 0 0.69 0.29 0.69 0.69 c 0 0.4 -0.3 0.69 -0.69 0.69 c -0.39 0 -0.69 -0.29 -0.69 -0.69 c 0 -0.4 0.3 -0.69 0.69 -0.69 z m 0.59 2.6 v 7.64 h -1.18 v -7.64 h 1.18 z M 297.9 170.37 c 0 1.15 -0.85 1.73 -1.8 1.73 c -0.97 0 -1.8 -0.58 -1.8 -1.73 v -4.47 c 0 -1.15 0.84 -1.73 1.8 -1.73 c 0.95 0 1.8 0.58 1.8 1.73 v 4.47 z m -2.43 0 c 0 0.38 0.27 0.63 0.62 0.63 s 0.62 -0.26 0.62 -0.63 v -4.47 c 0 -0.37 -0.27 -0.63 -0.62 -0.63 s -0.62 0.26 -0.62 0.63 v 4.47 z M 301.59 171.95 v -6.06 c 0 -0.37 -0.27 -0.63 -0.62 -0.63 s -0.62 0.26 -0.62 0.63 v 6.06 h -1.18 v -6.06 c 0 -1.15 0.84 -1.73 1.8 -1.73 c 0.95 0 1.8 0.58 1.8 1.73 v 6.06 h -1.18 z" stroke-linecap="round" />
</g>
</g>
</g>
</svg>